<svg width="152" height="39" viewBox="0 0 152 39" fill="none" xmlns="http://www.w3.org/2000/svg">
    <path fill-rule="evenodd" clip-rule="evenodd" d="M136 1C136.524 1 137.047 1.02568 137.568 1.07704C138.09 1.12841 138.607 1.2052 139.121 1.30744C139.635 1.40967 140.143 1.53684 140.645 1.68895C141.146 1.84107 141.639 2.01739 142.123 2.21793C142.607 2.41846 143.08 2.64224 143.542 2.88926C144.004 3.13628 144.453 3.40536 144.889 3.69649C145.325 3.98762 145.745 4.2994 146.15 4.63183C146.555 4.96427 146.943 5.31575 147.314 5.68629C147.684 6.05683 148.036 6.44463 148.368 6.84971C148.701 7.25478 149.012 7.67517 149.304 8.11088C149.595 8.54658 149.864 8.99551 150.111 9.45765C150.358 9.9198 150.582 10.3929 150.782 10.8771C150.983 11.3612 151.159 11.854 151.311 12.3554C151.463 12.8569 151.59 13.3646 151.693 13.8786C151.795 14.3925 151.872 14.9102 151.923 15.4317C151.974 15.9532 152 16.476 152 17C152 17.524 151.974 18.0468 151.923 18.5683C151.872 19.0898 151.795 19.6075 151.693 20.1214C151.59 20.6354 151.463 21.1431 151.311 21.6446C151.159 22.146 150.983 22.6388 150.782 23.1229C150.582 23.6071 150.358 24.0802 150.111 24.5423C149.864 25.0045 149.595 25.4534 149.304 25.8891C149.012 26.3248 148.701 26.7452 148.368 27.1503C148.036 27.5554 147.684 27.9432 147.314 28.3137C146.943 28.6842 146.555 29.0357 146.15 29.3682C145.745 29.7006 145.325 30.0124 144.889 30.3035C144.453 30.5946 144.004 30.8637 143.542 31.1107C143.08 31.3578 142.607 31.5815 142.123 31.7821C141.639 31.9826 141.146 32.1589 140.645 32.311C140.143 32.4632 139.635 32.5903 139.121 32.6926C138.607 32.7948 138.09 32.8716 137.568 32.923C137.047 32.9743 136.524 33 136 33C135.476 33 134.953 32.9743 134.432 32.923C133.91 32.8716 133.393 32.7948 132.879 32.6926C132.365 32.5903 131.857 32.4632 131.355 32.311C130.854 32.1589 130.361 31.9826 129.877 31.7821C129.393 31.5815 128.92 31.3578 128.458 31.1107C127.996 30.8637 127.547 30.5946 127.111 30.3035C126.675 30.0124 126.255 29.7006 125.85 29.3682C125.445 29.0357 125.057 28.6842 124.686 28.3137C124.316 27.9432 123.964 27.5554 123.632 27.1503C123.299 26.7452 122.988 26.3248 122.696 25.8891C122.405 25.4534 122.136 25.0045 121.889 24.5423C121.642 24.0802 121.418 23.6071 121.218 23.1229C121.017 22.6388 120.841 22.146 120.689 21.6446C120.537 21.1431 120.41 20.6354 120.307 20.1214C120.205 19.6075 120.128 19.0898 120.077 18.5683C120.026 18.0468 120 17.524 120 17C120 16.476 120.026 15.9532 120.077 15.4317C120.128 14.9102 120.205 14.3925 120.307 13.8786C120.41 13.3646 120.537 12.8569 120.689 12.3554C120.841 11.854 121.017 11.3612 121.218 10.8771C121.418 10.3929 121.642 9.9198 121.889 9.45765C122.136 8.99551 122.405 8.54658 122.696 8.11088C122.988 7.67517 123.299 7.25478 123.632 6.84971C123.964 6.44463 124.316 6.05683 124.686 5.68629C125.057 5.31575 125.445 4.96427 125.85 4.63183C126.255 4.2994 126.675 3.98762 127.111 3.69649C127.547 3.40536 127.996 3.13628 128.458 2.88926C128.92 2.64224 129.393 2.41846 129.877 2.21793C130.361 2.01739 130.854 1.84107 131.355 1.68895C131.857 1.53684 132.365 1.40967 132.879 1.30744C133.393 1.2052 133.91 1.12841 134.432 1.07704C134.953 1.02568 135.476 1 136 1Z" fill="#FFD900"/>
    <path d="M1.23 29.02H3.33V12.04H1.23V10.06H8.79L13.47 20.14H13.59L17.97 10.06H25.65V12.04H23.55V29.02H25.65V31H16.59V29.02H18.69V13.75H18.51L16.77 18.13L12.18 27.79L7.62 18.13L5.85 13.75H5.67V29.02H7.77V31H1.23V29.02ZM32.7445 31.36C31.0445 31.36 29.8045 30.97 29.0245 30.19C28.2645 29.39 27.8845 28.28 27.8845 26.86C27.8845 23.76 30.1745 22.21 34.7545 22.21H36.8545V20.5C36.8545 19.28 36.6245 18.36 36.1645 17.74C35.7045 17.12 34.9045 16.81 33.7645 16.81C33.3445 16.81 32.9845 16.84 32.6845 16.9C32.3845 16.96 32.1245 17.04 31.9045 17.14V17.29C32.1045 17.39 32.2945 17.57 32.4745 17.83C32.6745 18.09 32.7745 18.44 32.7745 18.88C32.7745 19.48 32.5845 19.99 32.2045 20.41C31.8245 20.81 31.2545 21.01 30.4945 21.01C29.8945 21.01 29.3945 20.8 28.9945 20.38C28.5945 19.96 28.3945 19.43 28.3945 18.79C28.3945 18.31 28.5345 17.84 28.8145 17.38C29.0945 16.9 29.5145 16.48 30.0745 16.12C30.6345 15.76 31.3245 15.47 32.1445 15.25C32.9845 15.03 33.9445 14.92 35.0245 14.92C37.2045 14.92 38.8145 15.39 39.8545 16.33C40.8945 17.25 41.4145 18.56 41.4145 20.26V29.02H43.2145V30.73C42.8745 30.93 42.4345 31.08 41.8945 31.18C41.3545 31.3 40.7945 31.36 40.2145 31.36C39.1145 31.36 38.3345 31.11 37.8745 30.61C37.4345 30.09 37.2145 29.45 37.2145 28.69V28.63H37.0345C36.8945 28.97 36.7145 29.3 36.4945 29.62C36.2945 29.94 36.0245 30.23 35.6845 30.49C35.3645 30.75 34.9645 30.96 34.4845 31.12C34.0045 31.28 33.4245 31.36 32.7445 31.36ZM34.4545 28.66C35.1945 28.66 35.7745 28.49 36.1945 28.15C36.6345 27.81 36.8545 27.22 36.8545 26.38V24.01H35.2345C34.2745 24.01 33.5545 24.21 33.0745 24.61C32.6145 25.01 32.3845 25.58 32.3845 26.32V26.8C32.3845 27.44 32.5745 27.91 32.9545 28.21C33.3345 28.51 33.8345 28.66 34.4545 28.66ZM45.1432 29.02H46.9432V18.31L45.1432 17.92V16.21L51.4132 14.92V17.89H51.5332C51.8132 17.05 52.2632 16.35 52.8832 15.79C53.5032 15.21 54.3132 14.92 55.3132 14.92C56.2932 14.92 57.0632 15.19 57.6232 15.73C58.1832 16.25 58.4632 16.97 58.4632 17.89C58.4632 18.69 58.2532 19.32 57.8332 19.78C57.4132 20.24 56.8232 20.47 56.0632 20.47C55.3432 20.47 54.7932 20.28 54.4132 19.9C54.0332 19.5 53.8432 19.03 53.8432 18.49C53.8432 18.25 53.8932 18.03 53.9932 17.83C54.0932 17.63 54.2132 17.5 54.3532 17.44L54.3232 17.29C54.2632 17.27 54.1732 17.26 54.0532 17.26C53.7332 17.26 53.4232 17.35 53.1232 17.53C52.8232 17.71 52.5532 17.94 52.3132 18.22C52.0732 18.5 51.8732 18.81 51.7132 19.15C51.5732 19.49 51.5032 19.82 51.5032 20.14V29.02H53.9032V31H45.1432V29.02ZM61.3076 17.26H59.8976V15.28H67.6076V17.26H65.9276L68.1776 26.44H68.3576L71.4776 15.28H75.0776L78.5876 26.47H78.7676L80.9276 17.26H78.9776V15.28H84.6776V17.26H83.2676L79.2176 31H75.8876L72.4076 20.05H72.2276L68.6876 31H65.3576L61.3076 17.26ZM90.4725 13.21C89.6325 13.21 88.9725 12.98 88.4925 12.52C88.0325 12.06 87.8025 11.44 87.8025 10.66V10.51C87.8025 9.73 88.0325 9.11 88.4925 8.65C88.9725 8.19 89.6325 7.96 90.4725 7.96C91.3125 7.96 91.9625 8.19 92.4225 8.65C92.9025 9.11 93.1425 9.73 93.1425 10.51V10.66C93.1425 11.44 92.9025 12.06 92.4225 12.52C91.9625 12.98 91.3125 13.21 90.4725 13.21ZM86.4225 29.02H88.2225V18.31L86.4225 17.92V16.21L92.7825 14.92V29.02H94.5825V31H86.4225V29.02ZM96.1713 29.02H97.9713V11.59L96.1713 11.2V9.49L102.531 8.2V29.02H104.331V31H96.1713V29.02ZM105.956 29.02H107.756V11.59L105.956 11.2V9.49L112.316 8.2V29.02H114.116V31H105.956V29.02Z" fill="white"/>
</svg>
